<svg width="92" height="25" viewBox="0 0 92 25" fill="none" xmlns="http://www.w3.org/2000/svg">
<path d="M12.1094 0C5.41992 0 0 5.41992 0 12.1094C0 18.7988 5.41992 24.2188 12.1094 24.2188C18.7988 24.2188 24.2188 18.7988 24.2188 12.1094C24.2188 5.41992 18.7988 0 12.1094 0Z" fill="#00063D"/>
<path d="M46.8906 1.1741V1.98753C46.8906 2.51507 47.2462 2.97185 47.7542 3.1138C51.5393 4.17107 54.3125 7.64197 54.3125 11.7671C54.3125 16.7324 50.2942 20.7514 45.3281 20.7514C40.3629 20.7514 36.3438 16.7331 36.3438 11.7671C36.3438 7.64256 39.1165 4.17117 42.902 3.1138C43.4101 2.97185 43.7656 2.51497 43.7656 1.98738V1.17449C43.7656 0.407449 43.0413 -0.15134 42.2986 0.0400174C37.0568 1.39021 33.1892 6.16189 33.2189 11.8321C33.2541 18.5241 38.6621 23.8905 45.3542 23.8764C52.0301 23.8623 57.4375 18.4462 57.4375 11.7671C57.4375 6.12093 53.5733 1.37747 48.3452 0.0367948C47.6073 -0.152414 46.8906 0.412381 46.8906 1.1741Z" fill="#00063D"/>
<path d="M80.6719 1.1741V1.98753C80.6719 2.51507 81.0274 2.97185 81.5355 3.1138C85.3205 4.17107 88.0938 7.64197 88.0938 11.7671C88.0938 16.7324 84.0755 20.7514 79.1094 20.7514C74.1441 20.7514 70.125 16.7331 70.125 11.7671C70.125 7.64256 72.8978 4.17117 76.6832 3.1138C77.1914 2.97185 77.5469 2.51497 77.5469 1.98738V1.17449C77.5469 0.407449 76.8226 -0.15134 76.0798 0.0400174C70.8381 1.39021 66.9704 6.16189 67.0002 11.8321C67.0353 18.5241 72.4434 23.8905 79.1355 23.8764C85.8113 23.8623 91.2188 18.4462 91.2188 11.7671C91.2188 6.12093 87.3545 1.37747 82.1264 0.0367948C81.3886 -0.152414 80.6719 0.412381 80.6719 1.1741Z" fill="#00063D"/>
</svg>
